<?xml version="1.0" standalone="no"?>
<!DOCTYPE svg PUBLIC "-//W3C//DTD SVG 20010904//EN"
 "http://www.w3.org/TR/2001/REC-SVG-20010904/DTD/svg10.dtd">
<svg version="1.0" xmlns="http://www.w3.org/2000/svg"
 width="478.000000pt" height="479.000000pt" viewBox="0 0 478.000000 479.000000"
 preserveAspectRatio="xMidYMid meet">

<g transform="translate(0.000000,479.000000) scale(0.100000,-0.100000)"
fill="#000000" stroke="none">
<path d="M0 2395 l0 -2395 1220 0 1220 0 -2 288 -3 287 -27 3 c-14 2 -32 10
-38 18 -7 8 -18 14 -25 14 -7 0 -16 11 -19 25 -10 39 -26 29 -26 -15 0 -33 -3
-40 -20 -40 -21 0 -94 -16 -146 -31 -51 -15 -516 -11 -614 6 -144 24 -195 36
-202 48 -4 7 -8 77 -8 157 0 154 -4 170 -46 170 -40 0 -54 11 -54 41 0 16 5
29 10 29 6 0 10 49 10 128 0 103 3 132 17 152 13 18 16 43 14 109 -1 47 3 109
10 136 6 28 15 106 19 175 6 114 14 172 25 191 3 4 21 10 41 13 45 9 84 26 84
38 0 5 -12 7 -27 4 -45 -9 -116 -10 -142 -2 -13 5 -36 9 -52 10 -16 1 -30 4
-31 7 -2 2 -8 13 -14 24 -6 11 -22 22 -35 25 -13 3 -39 16 -56 29 -27 20 -33
32 -33 63 0 25 -5 41 -15 44 -35 14 -6 427 31 441 9 3 14 20 14 43 0 21 7 43
15 50 8 7 15 23 15 36 0 19 5 24 25 24 22 0 25 4 25 38 0 28 7 45 24 61 14 13
26 38 28 55 3 30 4 31 53 31 44 0 50 -3 53 -22 2 -15 10 -23 22 -23 10 0 47
-16 82 -35 90 -49 127 -65 154 -65 17 0 24 -6 24 -20 0 -13 7 -20 20 -20 23 0
27 18 5 26 -20 8 -21 84 -1 84 9 0 21 21 30 54 9 30 21 58 26 61 6 3 10 15 10
26 0 11 7 22 15 25 8 4 15 15 15 26 0 27 31 78 48 78 19 0 62 49 62 71 0 19
37 89 55 102 5 4 25 6 43 3 23 -3 32 -1 29 7 -5 15 -32 21 -63 13 -26 -7 -74
-74 -74 -104 0 -24 -19 -42 -37 -35 -9 4 -16 -2 -20 -16 -6 -24 -67 -65 -87
-58 -7 3 -16 27 -20 54 -18 141 -24 148 -113 144 -28 -1 -71 1 -95 4 -37 6
-45 12 -60 44 -10 21 -18 50 -18 66 0 26 2 27 38 22 20 -3 44 -8 53 -11 9 -4
26 3 42 18 21 19 27 34 27 66 0 27 -5 43 -15 46 -19 8 -22 144 -3 144 6 0 31
21 55 47 32 36 43 56 43 80 0 18 4 33 9 33 5 0 19 16 31 34 11 19 34 49 49 65
26 28 35 31 91 31 38 0 73 6 93 17 23 12 56 17 117 18 76 0 88 -3 108 -23 12
-12 27 -34 32 -47 9 -23 14 -25 79 -25 65 0 73 -3 108 -32 21 -18 41 -37 45
-43 39 -58 37 -77 38 443 l0 492 -1205 0 -1205 0 0 -2395z m1533 833 c12 -6
38 -29 59 -52 l38 -40 0 -91 c0 -95 -10 -118 -57 -127 -10 -2 -19 -13 -21 -25
-5 -32 -52 -45 -99 -29 -21 7 -38 17 -38 22 -2 21 -17 54 -26 54 -5 0 -9 16
-9 35 0 31 -3 36 -30 42 -28 5 -30 9 -30 49 0 37 3 44 20 44 12 0 30 16 46 40
15 22 31 40 35 40 5 0 9 6 9 13 0 35 59 49 103 25z"/>
<path d="M4747 4662 c1 -70 2 -181 3 -247 0 -66 1 -169 2 -230 2 -85 1 -630
-2 -740 0 -11 2 -125 4 -253 2 -129 0 -235 -5 -238 -12 -7 -12 -84 0 -84 6 0
8 -28 6 -62 -9 -168 -10 -325 -3 -348 6 -16 6 -26 -1 -28 -6 -2 -11 -10 -11
-18 0 -9 -4 -12 -10 -9 -5 3 -10 1 -10 -4 0 -6 11 -11 25 -11 l25 0 0 1200 c0
953 -3 1200 -12 1200 -10 0 -13 -31 -11 -128z"/>
<path d="M2431 4294 c0 -11 3 -14 6 -6 3 7 2 16 -1 19 -3 4 -6 -2 -5 -13z"/>
<path d="M2432 3945 c0 -16 2 -22 5 -12 2 9 2 23 0 30 -3 6 -5 -1 -5 -18z"/>
<path d="M2432 3880 c0 -14 2 -19 5 -12 2 6 2 18 0 25 -3 6 -5 1 -5 -13z"/>
<path d="M2415 3779 c-4 -5 -4 -21 -1 -34 5 -19 12 -24 31 -23 17 2 25 8 22
18 -1 9 -12 14 -24 13 -16 -2 -20 2 -16 17 6 21 -2 27 -12 9z"/>
<path d="M2471 3650 c0 -40 2 -50 9 -38 6 10 7 31 1 55 -9 38 -9 38 -10 -17z"/>
<path d="M2530 3651 c0 -11 5 -23 10 -26 6 -4 10 5 10 19 0 14 -4 26 -10 26
-5 0 -10 -9 -10 -19z"/>
<path d="M3490 3656 c0 -9 37 -12 55 -5 15 6 11 8 -17 8 -21 1 -38 -1 -38 -3z"/>
<path d="M3440 3621 c0 -9 -8 -11 -24 -7 -14 3 -28 2 -31 -4 -4 -6 20 -10 65
-10 48 0 69 3 64 11 -3 6 -17 8 -32 4 -16 -4 -28 -1 -33 7 -7 11 -9 10 -9 -1z"/>
<path d="M3555 3620 c3 -5 8 -10 11 -10 2 0 4 5 4 10 0 6 -5 10 -11 10 -5 0
-7 -4 -4 -10z"/>
<path d="M3310 3595 c-10 -12 -10 -15 4 -15 9 0 16 7 16 15 0 8 -2 15 -4 15
-2 0 -9 -7 -16 -15z"/>
<path d="M3538 3583 c7 -3 16 -2 19 1 4 3 -2 6 -13 5 -11 0 -14 -3 -6 -6z"/>
<path d="M3185 3563 l-40 -13 39 4 c37 5 54 12 45 19 -2 2 -22 -2 -44 -10z"/>
<path d="M3580 3572 c0 -12 39 -32 44 -23 3 4 -6 13 -19 19 -14 7 -25 8 -25 4z"/>
<path d="M3117 3559 c7 -7 15 -10 18 -7 3 3 -2 9 -12 12 -14 6 -15 5 -6 -5z"/>
<path d="M2424 3529 c-3 -6 -2 -15 3 -20 5 -5 9 -1 9 11 0 23 -2 24 -12 9z"/>
<path d="M3616 3521 c-4 -7 -5 -15 -2 -18 9 -9 19 4 14 18 -4 11 -6 11 -12 0z"/>
<path d="M2416 3481 c-4 -7 -5 -15 -2 -18 9 -9 19 4 14 18 -4 11 -6 11 -12 0z"/>
<path d="M3090 3480 c0 -5 -8 -10 -17 -11 -11 0 -13 -3 -6 -6 7 -2 23 3 35 11
18 13 19 16 5 16 -9 0 -17 -4 -17 -10z"/>
<path d="M3630 3472 c0 -11 7 -25 16 -33 14 -11 15 -9 12 16 -3 32 -28 47 -28
17z"/>
<path d="M2993 3443 c4 -25 2 -36 -9 -40 -13 -5 -13 -7 -2 -14 20 -13 24 -11
36 16 8 18 8 24 0 22 -23 -5 -18 23 6 33 33 12 33 15 -5 16 -30 1 -31 0 -26
-33z"/>
<path d="M3040 3440 c0 -5 5 -10 10 -10 6 0 10 5 10 10 0 6 -4 10 -10 10 -5 0
-10 -4 -10 -10z"/>
<path d="M3670 3417 c0 -20 4 -37 9 -37 10 0 9 56 -2 66 -4 4 -7 -9 -7 -29z"/>
<path d="M2340 3394 c-24 -24 -47 -51 -51 -60 -7 -21 -79 -44 -136 -44 -41 0
-43 -1 -43 -30 0 -16 4 -30 9 -30 5 0 12 -13 16 -29 3 -16 17 -41 31 -56 13
-14 24 -30 24 -36 0 -5 6 -9 14 -9 8 0 21 -9 30 -21 l14 -21 4 23 c2 16 20 31
64 53 95 48 91 40 90 178 -1 72 -5 122 -11 123 -5 1 -30 -18 -55 -41z"/>
<path d="M2445 3350 c4 -6 11 -8 16 -5 14 9 11 15 -7 15 -8 0 -12 -5 -9 -10z"/>
<path d="M2652 3349 c-23 -3 -45 -8 -49 -12 -4 -4 4 -5 18 -3 13 2 89 6 169 7
80 1 134 3 120 5 -52 7 -217 9 -258 3z"/>
<path d="M2965 3335 c0 -32 15 -44 15 -12 0 14 -4 28 -8 31 -4 2 -8 -6 -7 -19z"/>
<path d="M2495 3340 c3 -5 8 -10 11 -10 2 0 4 5 4 10 0 6 -5 10 -11 10 -5 0
-7 -4 -4 -10z"/>
<path d="M3635 3340 c-3 -5 -3 -15 0 -21 4 -6 -3 -21 -16 -35 -12 -13 -18 -24
-13 -24 11 0 46 44 56 71 8 20 -15 28 -27 9z"/>
<path d="M2574 3319 c-3 -6 -17 -9 -31 -6 -23 4 -24 3 -9 -11 15 -15 18 -15
38 6 12 12 19 22 16 22 -4 0 -10 -5 -14 -11z"/>
<path d="M2495 3281 c-6 -11 9 -23 19 -14 9 9 7 23 -3 23 -6 0 -12 -4 -16 -9z"/>
<path d="M2458 3253 c-11 -3 -18 -13 -17 -26 1 -15 3 -17 6 -6 2 9 14 21 26
27 23 11 16 13 -15 5z"/>
<path d="M3586 3233 c-4 -13 -14 -23 -21 -23 -8 0 -16 -4 -19 -9 -9 -14 32 -1
45 15 6 7 9 19 7 26 -3 8 -8 4 -12 -9z"/>
<path d="M3571 3174 c0 -11 3 -14 6 -6 3 7 2 16 -1 19 -3 4 -6 -2 -5 -13z"/>
<path d="M3490 3141 c0 -17 18 -21 24 -6 3 9 0 15 -9 15 -8 0 -15 -4 -15 -9z"/>
<path d="M3419 3120 c-8 -5 -39 -10 -68 -11 -33 -2 -62 -10 -76 -21 -13 -10
-30 -18 -39 -18 -9 0 -16 -4 -16 -10 0 -13 -1 -14 66 16 46 20 67 24 101 19
27 -4 43 -11 43 -20 0 -9 6 -12 15 -9 13 5 12 10 -6 25 -17 15 -19 19 -6 19 9
0 19 5 22 10 8 12 -15 13 -36 0z"/>
<path d="M3190 3090 c8 -5 20 -10 25 -10 6 0 3 5 -5 10 -8 5 -19 10 -25 10 -5
0 -3 -5 5 -10z"/>
<path d="M3160 3070 c0 -5 9 -10 21 -10 11 0 17 5 14 10 -3 6 -13 10 -21 10
-8 0 -14 -4 -14 -10z"/>
<path d="M3395 3060 c-3 -5 -1 -10 4 -10 6 0 11 5 11 10 0 6 -2 10 -4 10 -3 0
-8 -4 -11 -10z"/>
<path d="M3132 3048 c3 -7 15 -15 27 -16 15 -2 21 0 16 7 -3 6 -11 9 -16 6 -5
-4 -9 -1 -9 4 0 6 -5 11 -11 11 -6 0 -9 -6 -7 -12z"/>
<path d="M2271 2985 c0 -16 6 -39 14 -49 20 -27 20 -1 0 45 l-14 34 0 -30z"/>
<path d="M3160 2996 c0 -9 5 -16 10 -16 6 0 10 4 10 9 0 6 -4 13 -10 16 -5 3
-10 -1 -10 -9z"/>
<path d="M3235 2990 c-3 -5 -2 -10 4 -10 5 0 13 5 16 10 3 6 2 10 -4 10 -5 0
-13 -4 -16 -10z"/>
<path d="M3190 2960 c0 -11 4 -20 8 -20 4 0 8 9 9 20 1 11 -2 20 -8 20 -5 0
-9 -9 -9 -20z"/>
<path d="M3212 2905 c-1 -14 3 -25 8 -25 6 0 10 11 10 25 0 14 -4 25 -8 25 -4
0 -9 -11 -10 -25z"/>
<path d="M2301 2860 c-1 -30 -8 -66 -16 -80 -8 -14 -14 -38 -15 -53 0 -15 -7
-30 -15 -33 -8 -4 -15 -12 -15 -18 0 -7 -18 -20 -40 -30 -22 -10 -40 -24 -40
-32 0 -8 -6 -25 -14 -37 -15 -24 -11 -177 5 -177 5 0 9 33 9 73 0 76 15 107
51 107 20 0 39 20 39 42 0 10 7 21 15 24 8 4 15 12 15 20 0 8 5 14 10 14 6 0
10 11 10 24 0 14 5 46 11 73 8 33 8 62 1 93 l-10 45 -1 -55z"/>
<path d="M3243 2859 c-2 -23 3 -25 10 -4 4 8 3 16 -1 19 -4 3 -9 -4 -9 -15z"/>
<path d="M3260 2811 c0 -14 7 -17 30 -13 28 4 30 2 30 -27 0 -17 5 -31 10 -31
6 0 8 11 4 27 -5 19 -2 30 11 39 10 8 15 17 11 21 -4 4 -12 0 -18 -10 -6 -12
-14 -15 -21 -9 -7 5 -22 12 -34 15 -17 4 -23 1 -23 -12z"/>
<path d="M1660 2716 c13 -17 78 -41 87 -32 3 3 -8 8 -23 12 -16 4 -35 13 -42
21 -19 18 -38 17 -22 -1z"/>
<path d="M3344 2703 c5 -39 6 -41 15 -18 9 22 4 45 -9 45 -5 0 -7 -12 -6 -27z"/>
<path d="M1768 2673 c7 -3 16 -2 19 1 4 3 -2 6 -13 5 -11 0 -14 -3 -6 -6z"/>
<path d="M3370 2650 c0 -5 4 -10 9 -10 5 0 11 -13 15 -30 3 -16 11 -30 17 -30
6 0 9 6 6 14 -8 20 16 38 39 30 18 -5 18 -5 1 6 -10 6 -23 10 -30 7 -6 -2 -18
2 -25 10 -16 15 -32 17 -32 3z"/>
<path d="M3435 2590 c-3 -5 -1 -10 4 -10 6 0 11 5 11 10 0 6 -2 10 -4 10 -3 0
-8 -4 -11 -10z"/>
<path d="M3426 2554 c-3 -7 -1 -16 4 -19 6 -4 11 0 11 7 1 7 4 -3 8 -22 4 -24
12 -36 26 -38 12 -2 16 0 9 5 -15 11 -25 53 -12 53 15 0 0 17 -21 23 -11 3
-22 -1 -25 -9z"/>
<path d="M2779 2422 c-3 -20 -2 -29 4 -23 5 5 7 19 5 32 -3 20 -5 19 -9 -9z"/>
<path d="M3480 2420 c0 -11 4 -20 8 -20 4 0 8 9 9 20 1 11 -2 20 -8 20 -5 0
-9 -9 -9 -20z"/>
<path d="M4138 2423 c7 -3 16 -2 19 1 4 3 -2 6 -13 5 -11 0 -14 -3 -6 -6z"/>
<path d="M3564 2399 c-3 -5 40 -9 98 -8 57 0 99 2 93 4 -25 9 -186 12 -191 4z"/>
<path d="M4060 2400 c-16 -5 9 -8 69 -9 52 -1 92 1 90 3 -9 8 -136 13 -159 6z"/>
<path d="M4620 2400 c-44 -7 -43 -7 20 -8 45 -1 60 1 50 8 -8 5 -17 9 -20 8
-3 0 -25 -4 -50 -8z"/>
<path d="M3878 2393 c7 -3 16 -2 19 1 4 3 -2 6 -13 5 -11 0 -14 -3 -6 -6z"/>
<path d="M3983 2393 c9 -2 25 -2 35 0 9 3 1 5 -18 5 -19 0 -27 -2 -17 -5z"/>
<path d="M4277 2393 c18 -2 50 -2 70 0 21 2 7 4 -32 4 -38 0 -55 -2 -38 -4z"/>
<path d="M2197 1763 c-4 -3 -7 -61 -7 -129 0 -102 3 -123 16 -128 27 -10 39
-7 26 6 -8 8 -12 53 -12 135 0 112 -5 135 -23 116z"/>
<path d="M2240 1215 c0 -9 7 -18 15 -21 12 -5 15 -31 15 -149 0 -124 2 -144
18 -156 14 -11 15 -11 5 1 -9 10 -13 57 -13 157 0 130 -2 145 -20 163 -16 16
-20 17 -20 5z"/>
</g>
</svg>
